<svg width="783" height="215" viewBox="0 0 783 215" fill="none" xmlns="http://www.w3.org/2000/svg">
<path d="M715.105 17.872C720.13 8.47971 727.834 11.0952 726.534 14.3438C737.148 9.90769 738.689 16.4784 736.28 17.872C738.463 17.2537 739.612 17.3126 739.724 18.0389C739.837 18.7651 739.587 19.2411 738.969 19.4669L712.671 19.5503C713.064 17.1997 713.874 16.6354 715.105 17.872Z" fill="white"/>
<path d="M782.044 214.478H371V210.213H782.044V214.478Z" fill="#133A53"/>
<path d="M404.85 134.235H636.527V210.218H404.85V134.235Z" fill="white"/>
<path d="M636.689 40.9111H773.299V129.785H636.689V40.9111Z" fill="white"/>
<path d="M636.532 135.016H758.911V210.218H636.532V135.016Z" fill="#FEA02F"/>
<path d="M636.718 134.112L758.911 134.201V147.558L636.836 142.199L636.718 134.112Z" fill="#F28706"/>
<path d="M636.532 129.176H763.387V137.989H636.532V129.176Z" fill="#133A53"/>
<path d="M743.287 164.92H749.578V167.697H743.287V164.92Z" fill="#F28706"/>
<path d="M753.219 166.922H759.51V170.936H753.219V166.922Z" fill="#F28706"/>
<path d="M646.248 176.28H652.539V179.053H646.248V176.28Z" fill="#F28706"/>
<path d="M753.499 196.757H756.644V199.53H753.499V196.757Z" fill="#F28706"/>
<path d="M400.787 129.176H636.777V137.989H400.787V129.176Z" fill="#133A53"/>
<path d="M404.678 137.984H417.755V210.36H404.678V137.984Z" fill="#FEA02F"/>
<path d="M383.675 192.046H385.466V139.108H387.179V192.046H388.97V208.397H390.84V210.964H381.889V208.397H383.68V192.046H383.675Z" fill="#133A53"/>
<path d="M391.321 128.637L389.338 141.013H382.924L380.947 128.637H378.974V125.212H384.338L385.295 122.719H386.978L387.935 125.212H393.146V128.637H391.325H391.321Z" fill="#133A53"/>
<path d="M383.484 130.04L386.286 128.406L388.931 130.04V138.603H383.479V130.04H383.484Z" fill="#FFFEF9"/>
<path d="M559.312 209.59H624.053V214.379H559.312V209.59Z" fill="#6A8393"/>
<path d="M559.312 209.531H623.999V210.89H559.312V209.531Z" fill="#D3E0E8"/>
<path d="M562.232 204.722H621.138V209.511H562.232V204.722Z" fill="#6A8393"/>
<path d="M562.232 204.663H621.084V206.027H562.232V204.663Z" fill="#D3E0E8"/>
<path d="M565.034 199.977H618.336V204.761H565.034V199.977Z" fill="#6A8393"/>
<path d="M565.034 199.917H618.287V201.277H565.034V199.917Z" fill="#D3E0E8"/>
<path d="M572.125 154.889H612.413V199.922H572.125V154.889Z" fill="#D3E0E8"/>
<path d="M593 156.73H610.195V198.009H593V156.73ZM574.054 156.73H591.135V198.009H574.054V156.73Z" fill="#133A53"/>
<path d="M404.85 203.941H547.516V210.36H404.85V203.941Z" fill="#6A8393"/>
<path d="M463.029 26.2139H641.262V35.0271H463.029V26.2139Z" fill="#133A53"/>
<path d="M432.919 10.9476H435.117V6.94336H453.21V10.9476H455.408V35.2381H432.924V10.9476H432.919Z" fill="#FAAA3F"/>
<path d="M455.403 28.26H451.139V20.2466H455.403V28.26Z" fill="white"/>
<path d="M435.112 6.64941H453.205V8.94596H435.112V6.64941Z" fill="#133A53"/>
<path d="M436.408 6.00098H438.797V6.64873H436.408V6.00098Z" fill="white"/>
<path d="M438.346 3.67536V6.35468H436.859V3.67536H428.782V35.2333H427.295V2.28662H427.717H428.782H436.859H438.346V3.67536Z" fill="white"/>
<path d="M721.122 206.277C722.123 203.122 723.928 201.586 726.544 201.669C730.47 201.792 731.912 205.418 731.912 206.827C731.912 206.827 735.038 204.069 738.841 205.909C741.894 207.386 742.296 209.462 742.335 210.218H715.522C715.797 205.634 719.237 205.001 721.122 206.277Z" fill="#4C98AB"/>
<path d="M751.153 204.707C752.694 201.164 755.295 199.451 758.951 199.564C764.437 199.736 766.233 203.505 766.233 205.477C769.148 202.906 772.377 202.479 775.92 204.192C780.189 206.258 780.753 209.153 780.807 210.213H742.875C742.978 208.49 746.693 200.286 751.148 204.707H751.153Z" fill="#4C98AB"/>
<path d="M762.621 204.329C762.616 204.319 762.062 201.841 763.235 199.643C761.61 199.054 761.002 197.817 761.409 195.938C763.549 196.326 763.819 198.298 763.794 199.231C764.913 198.176 766.557 197.906 767.793 199.059C767.676 199.255 765.777 201.174 763.799 199.962C762.749 201.935 763.249 204.177 763.254 204.182L762.616 204.324L762.621 204.329Z" fill="#4C98AB"/>
<path d="M731.151 209.997C731.912 206.552 734.704 205.517 739.528 206.896C740.46 204.756 742.026 203.721 744.234 203.794C745.588 203.833 746.57 204.246 747.262 204.79C747.37 204.471 747.512 204.152 747.698 203.838C746.418 203.294 745.986 202.278 746.388 200.791C748.091 201.193 748.223 202.788 748.165 203.534C749.107 202.734 750.437 202.587 751.384 203.564C751.281 203.721 749.671 205.178 748.14 204.123C747.929 204.471 747.782 204.835 747.684 205.188C748.356 205.914 748.626 206.773 748.626 207.367C750.383 205.816 752.331 205.556 754.47 206.591C757.047 207.838 757.385 209.59 757.419 210.223H731.137L731.147 210.002L731.151 209.997Z" fill="#79C2BD"/>
<path d="M419.434 35.0273H463.029V129.176H419.434V35.0273Z" fill="white"/>
<path d="M425.936 52.5898H455.83V129.176H425.936V52.5898Z" fill="#D3E0E8"/>
<path d="M419.434 34.7524H463.029V43.9828H419.434V34.7524Z" fill="#133A53"/>
<path d="M401.787 115.726H539.306V118.528H525.566V129.564H523.053V118.528H504.602V129.564H502.09V118.528H483.992V129.564H481.48V118.528H463.029V129.564H460.516V118.528H441.192V129.564H438.68V118.528H419.355V129.564H416.843V118.528H401.783V115.726H401.787Z" fill="#6A8393"/>
<path d="M472.858 198.946C471.955 198.946 471.214 198.205 471.214 197.302V191.31C471.214 190.407 471.955 189.667 472.858 189.667H473.898V195.31H485.578V189.667H486.853C487.756 189.667 488.497 190.407 488.497 191.31V197.302C488.497 198.205 487.756 198.946 486.853 198.946H472.858Z" fill="#FEA02F"/>
<path d="M473.084 198.946H474.33L473.584 203.951H473.084V198.946Z" fill="#133A53"/>
<path d="M486.161 203.951H485.661L484.915 198.946H486.161V203.951Z" fill="#133A53"/>
<path d="M473.854 192.41H485.627V195.389H473.854V192.41Z" fill="#133A53"/>
<path d="M473.153 179.897C473.128 179.445 473.521 179.077 473.972 179.077H485.499C485.951 179.077 486.348 179.445 486.319 179.897L485.573 192.484H473.894L473.148 179.897H473.153Z" fill="#FEA02F"/>
<path d="M473.898 189.662L485.641 191.404L485.577 192.484H473.898V189.662Z" fill="#F28706"/>
<path d="M474.463 198.946H475.709L474.963 203.951H474.463V198.946Z" fill="#133A53"/>
<path d="M484.758 203.951H484.262L483.516 198.946H484.763V203.951H484.758Z" fill="#133A53"/>
<path d="M476.882 179.539H482.196C483.099 179.539 483.84 180.28 483.84 181.183V181.477C483.84 182.38 483.099 183.121 482.196 183.121H476.882C475.979 183.121 475.238 182.38 475.238 181.477V181.183C475.238 180.28 475.979 179.539 476.882 179.539Z" fill="#113B54"/>
<path d="M512.248 198.946C511.345 198.946 510.604 198.205 510.604 197.302V191.31C510.604 190.407 511.345 189.667 512.248 189.667H513.288V195.31H524.967V189.667H526.243C527.146 189.667 527.887 190.407 527.887 191.31V197.302C527.887 198.205 527.146 198.946 526.243 198.946H512.248Z" fill="#FEA02F"/>
<path d="M512.474 198.946H513.72L512.974 203.951H512.474V198.946Z" fill="#133A53"/>
<path d="M525.551 203.951H525.051L524.305 198.946H525.551V203.951Z" fill="#133A53"/>
<path d="M513.244 192.41H525.016V195.389H513.244V192.41Z" fill="#133A53"/>
<path d="M512.542 179.897C512.518 179.445 512.91 179.077 513.362 179.077H524.889C525.34 179.077 525.738 179.445 525.713 179.897L524.967 192.484H513.288L512.542 179.897Z" fill="#FEA02F"/>
<path d="M513.293 189.662L525.036 191.404L524.972 192.484H513.293V189.662Z" fill="#F28706"/>
<path d="M513.857 198.946H515.104L514.358 203.951H513.857V198.946Z" fill="#133A53"/>
<path d="M524.153 203.951H523.657L522.911 198.946H524.158V203.951H524.153Z" fill="#133A53"/>
<path d="M516.272 179.539H521.586C522.489 179.539 523.23 180.28 523.23 181.183V181.477C523.23 182.38 522.489 183.121 521.586 183.121H516.272C515.369 183.121 514.628 182.38 514.628 181.477V181.183C514.628 180.28 515.369 179.539 516.272 179.539Z" fill="#113B54"/>
<path d="M492.443 194.235H507.233V195.403H499.887V203.284H502.875V203.941H499.887H499.102H495.966V203.284H499.102V195.403H492.443V194.235Z" fill="#113B54"/>
<path d="M424.949 204.001L422.751 198.495H432.521L430.323 204.001H424.949Z" fill="#FAAA3F"/>
<path d="M423.791 198.495C422.466 196.969 422.368 196.193 423.487 196.174L424.493 196.566C423.86 194.736 423.933 193.843 424.709 193.882C425.484 193.921 426.073 194.289 426.48 194.981C426.093 192.67 426.461 191.492 427.58 191.443C429.258 191.365 428.924 193.946 428.924 194.098C428.924 194.25 429.12 193.627 429.807 193.671C430.494 193.72 430.509 194.618 430.293 194.863C430.293 194.863 431.942 193.887 432.246 195.016C432.447 195.771 432.276 196.512 431.726 197.243C432.07 197.062 432.246 197.224 432.246 197.734C432.246 198.244 432.055 198.5 431.667 198.5H423.791V198.495Z" fill="#4A9EA6"/>
<path d="M435.112 204.001L432.914 198.495H442.684L440.485 204.001H435.112Z" fill="#FAAA3F"/>
<path d="M433.949 198.495C432.624 196.969 432.526 196.193 433.645 196.174L434.651 196.566C434.018 194.736 434.091 193.843 434.867 193.882C435.642 193.921 436.231 194.289 436.638 194.981C436.638 194.981 436.059 191.517 437.737 191.443C439.416 191.365 439.082 193.946 439.082 194.098C439.082 194.25 439.283 193.627 439.97 193.671C440.657 193.72 440.672 194.618 440.461 194.863C440.461 194.863 442.11 193.887 442.414 195.016C442.615 195.771 442.443 196.512 441.894 197.243C442.242 197.062 442.414 197.224 442.414 197.734C442.414 198.244 442.223 198.5 441.835 198.5H433.959L433.949 198.495Z" fill="#4A9EA6"/>
<path d="M463.029 34.7524H663.614V129.785H463.029V34.7524Z" fill="#6A8393"/>
<path d="M696.046 64.6763H744.391V83.4756H696.046V64.6763Z" fill="#6A8393"/>
<path d="M693.828 62.311H742.173V81.1104H693.828V62.311Z" fill="white"/>
<path d="M716.553 79.0986H695.619V64.1514H716.553V79.0986Z" fill="#133A53"/>
<path d="M739.95 79.0986H718.815V64.1514H739.95V79.0986Z" fill="#133A53"/>
<path d="M473.089 35.0273H557.276V129.637H473.089V35.0273Z" fill="white"/>
<path d="M516.65 37.2549H553.311V125.27H516.65V37.2549ZM476.249 37.2549H512.665V125.27H476.249V37.2549Z" fill="#1F6FF5"/>
<path d="M570.511 58.2085H663.619V60.5296H570.511V58.2085ZM474.291 58.2085H557.276V60.5296H474.291V58.2085Z" fill="white"/>
<path d="M570.511 81.6948H663.619V84.0159H570.511V81.6948ZM475.694 81.6948H557.276V84.0159H475.694V81.6948Z" fill="white"/>
<path d="M570.511 104.351H663.619V106.672H570.511V104.351ZM475.341 104.351H557.276V106.672H475.341V104.351Z" fill="white"/>
<path d="M176.805 47.5308H211.95V214.006H176.805V47.5308Z" fill="#FEA02F"/>
<path d="M176.805 214.007H73.4209V118.611H176.805V214.007Z" fill="#6A8393"/>
<path d="M207.411 0H311.325V2.80197H302.512V13.8382H300V2.80197H281.902V13.8382H279.389V2.80197H260.938V13.8382H258.426V2.80197H239.102V13.8382H236.589V2.80197H217.265V13.8382H214.752V2.80197H207.411V0Z" fill="#6A8393"/>
<path d="M207.411 13.2344H311.325V214.006H207.411V13.2344Z" fill="white"/>
<path d="M216.352 118.729H302.296V153.06H216.352V118.729Z" fill="#133A53"/>
<path d="M243.852 154.168H241.982V117.796H243.852V154.168Z" fill="white"/>
<path d="M276.897 154.168H275.027V117.796H276.897V154.168Z" fill="white"/>
<path d="M215.748 154.855H303.542V157.221H215.748V154.855Z" fill="#133A53"/>
<path d="M276.45 154.86L274.252 149.354H284.017L281.823 154.86H276.45Z" fill="#FAAA3F"/>
<path d="M275.292 149.355C273.967 147.829 273.869 147.054 274.988 147.034L275.993 147.432C275.993 147.432 275.051 144.684 276.209 144.742C276.985 144.782 277.574 145.15 277.981 145.842C277.593 143.53 277.961 142.353 279.08 142.299C280.763 142.22 280.425 144.801 280.425 144.953C280.425 145.106 280.626 144.477 281.313 144.526C282 144.571 282.015 145.474 281.804 145.714C281.804 145.714 283.452 144.738 283.757 145.866C283.963 146.617 283.786 147.363 283.236 148.094C283.236 148.094 283.757 147.819 283.757 148.585C283.757 149.095 283.565 149.35 283.178 149.35H275.302L275.292 149.355Z" fill="#4A9EA6"/>
<path d="M263.863 154.86L261.665 149.354H271.435L269.237 154.86H263.863Z" fill="#FAAA3F"/>
<path d="M262.705 149.355C261.38 147.829 261.282 147.054 262.401 147.034L263.407 147.432C263.407 147.432 262.46 144.684 263.623 144.742C264.393 144.782 264.987 145.15 265.389 145.842C265.389 145.842 264.81 142.377 266.488 142.299C268.172 142.22 267.833 144.801 267.833 144.953C267.833 145.106 268.029 144.477 268.716 144.526C269.403 144.571 269.418 145.474 269.207 145.714C269.207 145.714 270.856 144.738 271.16 145.866C271.366 146.617 271.19 147.363 270.64 148.094C270.64 148.094 271.16 147.819 271.16 148.585C271.16 149.095 270.969 149.35 270.581 149.35H262.705V149.355Z" fill="#4A9EA6"/>
<path d="M215.596 157.221H303.542V159.601H215.596V157.221Z" fill="#E5E6E7"/>
<path d="M349.135 186.959C327.597 185.378 320.879 173.361 332.338 173.361C312.346 157.275 325.438 139.673 334.281 147.534L336.911 150.278C337.255 131.67 355.244 119.196 357.482 140.448C357.786 143.344 357.521 146.352 356.682 149.478C369.77 138.049 377.224 155.253 367.993 162.506C375.81 163.537 376.419 172.747 372.336 176.678C365.863 182.915 358.38 187.15 349.14 186.963L349.135 186.959Z" fill="#4B9BA6"/>
<path d="M350.563 185.127L351.137 193.411L354.508 190.496L355.593 188.381L356.967 188.209L355.877 190.78L358.851 191.011L359.592 191.752L355.077 191.865L351.422 196.325L351.765 211.523L346.279 211.636L346.333 200.668L343.305 195.584L344.105 193.867L346.961 196.954L347.417 185.299C348.409 183.964 349.454 183.91 350.558 185.127H350.563Z" fill="#133A53"/>
<path fill-rule="evenodd" clip-rule="evenodd" d="M354.881 157.554C353.208 154.163 353.017 152.657 354.312 153.04C357.732 154.046 356.275 157.554 354.881 157.554ZM341.514 184.809C335.419 178.258 334.198 174.675 337.858 174.067C337.858 174.067 339.124 173.625 340.577 174.342C339.429 173.287 338.069 171.677 338.202 170.067C338.428 167.324 341.176 164.925 346.088 166.981C346.088 166.981 340.376 157.726 344.601 155.783C348.831 153.839 353.973 157.952 355.568 162.295C355.568 162.295 356.368 159.321 358.086 159.895C359.229 160.278 359.725 161.23 359.568 162.751C369.789 158.634 364.298 173.287 363.567 173.606C373.121 171.216 355.617 194.471 341.514 184.804V184.809ZM342.083 175.554C341.588 174.97 341.073 174.587 340.572 174.342C341.377 175.083 342.078 175.554 342.083 175.554ZM357.669 156.857C357.924 155.361 358.571 154.713 359.612 154.914C361.771 155.336 357.462 159.286 357.669 156.857Z" fill="#79C2BD"/>
<path d="M337.878 196.454C337.799 195.433 338.202 194.957 339.085 195.031C337.147 193.264 336.627 192.155 337.515 191.708C337.515 191.708 337.971 191.448 339.433 192.278C338.938 189.147 339.63 187.954 341.504 188.71C341.504 188.71 342.952 189.412 343.369 191.139C343.369 191.139 345.381 189.25 346.043 191.978C347.535 198.132 337.976 197.676 337.878 196.459V196.454Z" fill="#4B9BA6"/>
<path d="M334.929 210.954H363.268V214.87H334.929V210.954Z" fill="#80BDBC"/>
<path d="M339.06 193.028H343.497V214.831H339.06V193.028ZM348.404 193.028H352.845V214.831H348.404V193.028ZM357.747 193.028H362.188V214.831H357.747V193.028ZM367.247 193.028H371.683V214.831H367.247V193.028ZM376.586 193.028H381.027V214.831H376.586V193.028ZM329.722 193.028H334.163V214.831H329.722V193.028Z" fill="white"/>
<path d="M383.25 199.491H327.823V198.088H383.25V199.491Z" fill="white"/>
<path d="M383.25 210.237H327.823V208.834H383.25V210.237Z" fill="white"/>
<path d="M411.044 214.478H0V210.213H411.044V214.478Z" fill="#133A53"/>
<path d="M32.9123 188.416H37.3484V210.219H32.9123V188.416ZM42.2556 188.416H46.6917V210.219H42.2556V188.416ZM51.5988 188.416H56.0349V210.219H51.5988V188.416ZM61.0942 188.416H65.5351V210.219H61.0942V188.416ZM70.4374 188.416H74.8784V210.219H70.4374V188.416ZM23.574 188.416H28.01V210.219H23.574V188.416Z" fill="white"/>
<path d="M77.1063 194.878H21.6798V193.475H77.1063V194.878Z" fill="white"/>
<path d="M77.1063 205.616H21.6798V204.217H77.1063V205.616Z" fill="white"/>
<path d="M176.805 109.857H207.411V118.612H176.805V109.857Z" fill="#133A53"/>
<path d="M182.703 127.361H188.563V133.22H182.703V127.361Z" fill="white"/>
<path d="M189.578 127.361H195.438V133.22H189.578V127.361Z" fill="white"/>
<path d="M196.434 127.361H202.293V133.22H196.434V127.361Z" fill="white"/>
<path d="M182.703 134.187H188.563V140.046H182.703V134.187Z" fill="white"/>
<path d="M189.578 134.187H195.438V140.046H189.578V134.187Z" fill="white"/>
<path d="M196.434 134.187H202.293V140.046H196.434V134.187Z" fill="white"/>
<path d="M182.703 142.892H188.563V148.751H182.703V142.892Z" fill="white"/>
<path d="M189.578 142.892H195.438V148.751H189.578V142.892Z" fill="white"/>
<path d="M196.434 142.892H202.293V148.751H196.434V142.892Z" fill="white"/>
<path d="M182.703 149.713H188.563V155.573H182.703V149.713Z" fill="white"/>
<path d="M189.578 149.713H195.438V155.573H189.578V149.713Z" fill="white"/>
<path d="M196.434 149.713H202.293V155.573H196.434V149.713Z" fill="white"/>
<path d="M182.703 158.379H188.563V164.238H182.703V158.379Z" fill="white"/>
<path d="M189.578 158.379H195.438V164.238H189.578V158.379Z" fill="white"/>
<path d="M196.434 158.379H202.293V164.238H196.434V158.379Z" fill="white"/>
<path d="M182.703 165.2H188.563V171.059H182.703V165.2Z" fill="white"/>
<path d="M189.578 165.2H195.438V171.059H189.578V165.2Z" fill="white"/>
<path d="M196.434 165.2H202.293V171.059H196.434V165.2Z" fill="white"/>
<path d="M182.703 173.479H188.563V179.338H182.703V173.479Z" fill="white"/>
<path d="M189.578 173.479H195.438V179.338H189.578V173.479Z" fill="white"/>
<path d="M196.434 173.479H202.293V179.338H196.434V173.479Z" fill="white"/>
<path d="M182.703 180.299H188.563V186.158H182.703V180.299Z" fill="white"/>
<path d="M189.578 180.299H195.438V186.158H189.578V180.299Z" fill="white"/>
<path d="M196.434 180.299H202.293V186.158H196.434V180.299Z" fill="white"/>
<path d="M182.703 188.896H188.563V194.756H182.703V188.896Z" fill="white"/>
<path d="M189.578 188.896H195.438V194.756H189.578V188.896Z" fill="white"/>
<path d="M196.434 188.896H202.293V194.756H196.434V188.896Z" fill="white"/>
<path d="M182.703 195.713H188.563V201.572H182.703V195.713Z" fill="white"/>
<path d="M189.578 195.713H195.438V201.572H189.578V195.713Z" fill="white"/>
<path d="M196.434 195.713H202.293V201.572H196.434V195.713Z" fill="white"/>
<path d="M182.703 73.1411H188.563V79.0003H182.703V73.1411Z" fill="white"/>
<path d="M189.578 73.1411H195.438V79.0003H189.578V73.1411Z" fill="white"/>
<path d="M196.434 73.1411H202.293V79.0003H196.434V73.1411Z" fill="white"/>
<path d="M182.703 79.9575H188.563V85.8167H182.703V79.9575Z" fill="white"/>
<path d="M189.578 79.9575H195.438V85.8167H189.578V79.9575Z" fill="white"/>
<path d="M196.434 79.9575H202.293V85.8167H196.434V79.9575Z" fill="white"/>
<path d="M182.703 88.6675H188.563V94.5266H182.703V88.6675Z" fill="white"/>
<path d="M189.578 88.6675H195.438V94.5266H189.578V88.6675Z" fill="white"/>
<path d="M196.434 88.6675H202.293V94.5266H196.434V88.6675Z" fill="white"/>
<path d="M182.703 95.4883H188.563V101.347H182.703V95.4883Z" fill="white"/>
<path d="M189.578 95.4883H195.438V101.347H189.578V95.4883Z" fill="white"/>
<path d="M196.434 95.4883H202.293V101.347H196.434V95.4883Z" fill="white"/>
<path d="M280.906 22.0283H286.765V27.8875H280.906V22.0283Z" fill="#FEA02F"/>
<path d="M287.781 22.0283H293.635V27.8875H287.781V22.0283Z" fill="#FEA02F"/>
<path d="M294.641 22.0283H300.5V27.8875H294.641V22.0283Z" fill="#FEA02F"/>
<path d="M280.906 28.8491H286.765V34.7083H280.906V28.8491Z" fill="#FEA02F"/>
<path d="M287.781 28.8491H293.635V34.7083H287.781V28.8491Z" fill="#FEA02F"/>
<path d="M294.641 28.8491H300.5V34.7083H294.641V28.8491Z" fill="#FEA02F"/>
<path d="M280.906 37.5547H286.765V43.4138H280.906V37.5547Z" fill="#FEA02F"/>
<path d="M287.781 37.5547H293.635V43.4138H287.781V37.5547Z" fill="#FEA02F"/>
<path d="M294.641 37.5547H300.5V43.4138H294.641V37.5547Z" fill="#FEA02F"/>
<path d="M280.906 44.3755H286.765V50.2346H280.906V44.3755Z" fill="#FEA02F"/>
<path d="M287.781 44.3755H293.635V50.2346H287.781V44.3755Z" fill="#FEA02F"/>
<path d="M294.641 44.3755H300.5V50.2346H294.641V44.3755Z" fill="#FEA02F"/>
<path d="M280.906 53.0415H286.765V58.9007H280.906V53.0415Z" fill="#FEA02F"/>
<path d="M287.781 53.0415H293.635V58.9007H287.781V53.0415Z" fill="#FEA02F"/>
<path d="M294.641 53.0415H300.5V58.9007H294.641V53.0415Z" fill="#FEA02F"/>
<path d="M280.906 59.8682H286.765V65.7273H280.906V59.8682Z" fill="#FEA02F"/>
<path d="M287.781 59.8682H293.635V65.7273H287.781V59.8682Z" fill="#FEA02F"/>
<path d="M294.641 59.8682H300.5V65.7273H294.641V59.8682Z" fill="#FEA02F"/>
<path d="M280.906 68.1411H286.765V74.0003H280.906V68.1411Z" fill="#FEA02F"/>
<path d="M287.781 68.1411H293.635V74.0003H287.781V68.1411Z" fill="#FEA02F"/>
<path d="M294.641 68.1411H300.5V74.0003H294.641V68.1411Z" fill="#FEA02F"/>
<path d="M280.906 74.9668H286.765V80.826H280.906V74.9668Z" fill="#FEA02F"/>
<path d="M287.781 74.9668H293.635V80.826H287.781V74.9668Z" fill="#FEA02F"/>
<path d="M294.641 74.9668H300.5V80.826H294.641V74.9668Z" fill="#FEA02F"/>
<path d="M280.906 83.7119H286.765V89.5711H280.906V83.7119Z" fill="#FEA02F"/>
<path d="M287.781 83.7119H293.635V89.5711H287.781V83.7119Z" fill="#FEA02F"/>
<path d="M294.641 83.7119H300.5V89.5711H294.641V83.7119Z" fill="#FEA02F"/>
<path d="M280.906 90.5327H286.765V96.3919H280.906V90.5327Z" fill="#FEA02F"/>
<path d="M287.781 90.5327H293.635V96.3919H287.781V90.5327Z" fill="#FEA02F"/>
<path d="M294.641 90.5327H300.5V96.3919H294.641V90.5327Z" fill="#FEA02F"/>
<path d="M280.906 98.8105H286.765V104.67H280.906V98.8105Z" fill="#FEA02F"/>
<path d="M287.781 98.8105H293.635V104.67H287.781V98.8105Z" fill="#FEA02F"/>
<path d="M294.641 98.8105H300.5V104.67H294.641V98.8105Z" fill="#FEA02F"/>
<path d="M280.906 105.637H286.765V111.496H280.906V105.637Z" fill="#FEA02F"/>
<path d="M287.781 105.637H293.635V111.496H287.781V105.637Z" fill="#FEA02F"/>
<path d="M294.641 105.637H300.5V111.496H294.641V105.637Z" fill="#FEA02F"/>
<path d="M88.2897 160.391H128.577V205.424H88.2897V160.391Z" fill="#D3E0E8"/>
<path d="M109.165 162.23H126.36V203.51H109.165V162.23ZM90.2183 162.23H107.3V203.51H90.2183V162.23Z" fill="#133A53"/>
<path d="M126.467 160.391H166.755V205.424H126.467V160.391Z" fill="#D3E0E8"/>
<path d="M147.342 162.23H164.532V203.51H147.342V162.23ZM128.396 162.23H145.473V203.51H128.396V162.23Z" fill="#133A53"/>
<path d="M171.476 210.263H81.5864V205.424H171.476V210.263Z" fill="white"/>
<path d="M35.837 206.322C36.8381 203.167 38.6439 201.631 41.2594 201.714C45.1802 201.837 46.623 205.463 46.623 206.872C46.623 206.872 49.7488 204.114 53.5519 205.954C56.6042 207.431 57.0065 209.507 57.0458 210.262H30.233C30.5078 205.679 33.9478 205.046 35.8321 206.322H35.837Z" fill="#4C98AB"/>
<path d="M65.8688 204.756C67.4097 201.213 70.0105 199.501 73.6663 199.614C79.1525 199.785 80.9486 203.554 80.9486 205.527C80.9486 205.527 85.3208 201.67 90.6353 204.241C94.9045 206.307 95.4689 209.202 95.5229 210.262H57.5905C57.6935 208.54 61.4082 200.335 65.8639 204.756H65.8688Z" fill="#4C98AB"/>
<path d="M77.3367 204.379C77.3367 204.369 76.7773 201.891 77.9501 199.692C76.3259 199.103 75.7223 197.867 76.1296 195.987C78.2691 196.375 78.539 198.348 78.5145 199.28C79.6333 198.225 81.2772 197.955 82.5138 199.108C82.396 199.305 80.4921 201.223 78.5194 200.011C77.4643 201.984 77.9698 204.226 77.9747 204.231L77.3367 204.374V204.379Z" fill="#4C98AB"/>
<path d="M45.8673 210.042C46.6279 206.597 49.4201 205.562 54.2438 206.94C55.1762 204.801 56.7416 203.766 58.9498 203.834C60.3042 203.873 61.2905 204.286 61.9775 204.83C62.0805 204.511 62.2278 204.192 62.4142 203.878C61.1384 203.334 60.7017 202.318 61.104 200.831C62.8068 201.229 62.9393 202.828 62.8804 203.574C63.8226 202.774 65.1524 202.627 66.0995 203.604C65.9965 203.756 64.3918 205.218 62.8559 204.163C62.6449 204.511 62.4977 204.875 62.3995 205.228C63.0767 205.954 63.3417 206.813 63.3417 207.407C63.3417 207.407 65.9818 205.081 69.1861 206.631C71.7624 207.878 72.101 209.63 72.1403 210.263H45.8525L45.8624 210.042H45.8673Z" fill="#79C2BD"/>
<path d="M106.534 118.572C109.778 110.548 119.494 87.5926 121.119 96.293C122.713 104.832 114.528 115.078 111.451 118.572H106.534Z" fill="#79C2BD"/>
<path d="M100.391 118.572C96.2392 105.278 95.9743 99.1149 99.5957 100.087C103.217 101.058 104.586 107.222 103.703 118.572H100.391Z" fill="#79C2BD"/>
<path d="M100.062 118.572H97.4761C93.5013 113.229 92.3972 110.559 94.1637 110.559C95.9303 110.559 98.006 113.229 100.391 118.572H100.062Z" fill="#4B9BA6"/>
<path d="M103.536 118.572C102.265 108.571 103.526 104.253 107.315 105.617C111.108 106.981 111.329 111.3 107.977 118.572H105.592H103.536Z" fill="#4B9BA6"/>
<path d="M134.201 79.335L134.859 96.2108L139.236 91.4852L140.463 94.1105L135.825 101.898L135.914 118.691L127.518 118.519L128.043 95.249L122.444 88.428L115.534 88.2563L116.673 87.1178L121.222 86.7694L119.563 82.8338L121.663 83.0939L123.327 86.3277L128.489 90.7884L129.363 78.1033L126.904 73.5004L129.108 73.3188L131.424 76.96L132.984 76.5429L134.294 77.436L134.216 79.335H134.201Z" fill="#133A53"/>
<path d="M148.766 95.4396C148.623 97.3092 133.985 98.0109 136.272 88.5842C137.283 84.4082 140.364 87.2986 140.364 87.2986C140.998 84.6585 143.211 83.5839 143.211 83.5839C147.514 81.8565 146.376 89.0455 146.376 89.0455C148.618 87.7746 149.315 88.177 149.315 88.177C150.679 88.864 149.879 90.5619 146.916 93.2657C148.27 93.1528 148.883 93.8742 148.761 95.4347L148.766 95.4396Z" fill="#4B9BA6"/>
<path d="M132.091 66.8995C132.96 67.5227 132.66 72.9697 129.593 75.4085C127.272 77.2536 123.234 76.1299 119.725 73.9855C116.059 71.7429 120.765 69.8242 120.765 69.8242C118.842 67.9055 119.077 65.4519 119.077 65.4519C119.593 62.4046 121.693 62.4536 125.388 65.5991C125.447 63.8816 125.707 62.8953 126.178 62.6352C127.478 61.8304 128.509 63.4007 129.269 67.3412C129.878 66.1291 130.815 65.977 132.086 66.8946L132.091 66.8995Z" fill="#4B9BA6"/>
<path d="M111.726 118.572L106.245 108.6L113.753 115.632L112.796 102.285L118.4 114.562L120.427 109.675L121.619 113.969L126.703 104.885L127.1 114.685L131.154 109.798L130.56 115.038L136.291 106.407L131.63 118.581H111.726V118.572Z" fill="#FEA02F"/>
<path d="M138.652 118.572C132.297 113.429 131.502 110.068 136.267 108.478C137.538 108.056 138.515 107.624 139.3 107.192L141.302 110.294L140.546 106.397C142.843 104.724 142.848 103.281 146.395 103.11C150.282 102.923 149.84 104.488 151.509 105.406L151.366 111.604L152.593 105.813C152.873 105.877 153.187 105.936 153.54 105.975C157.829 106.451 159.861 105.141 161.048 106.932C161.897 108.203 162.427 109.243 162.682 110.151L158.634 113.336L162.864 111.422C162.839 113.788 160.558 115.358 157.113 118.572H138.642H138.652Z" fill="#4B9BA6"/>
<path d="M144.59 118.263C144.668 118.351 144.707 118.459 144.707 118.572H143.633L138.431 112.835C138.259 112.649 138.274 112.359 138.46 112.188C138.647 112.021 138.936 112.036 139.108 112.217L144.594 118.258L144.59 118.263Z" fill="#79C2BD"/>
<path d="M148.643 118.557V118.576H147.73L147.254 107.069C147.244 106.819 147.441 106.608 147.691 106.598C147.941 106.588 148.152 106.784 148.167 107.035L148.643 118.557Z" fill="#79C2BD"/>
<path d="M151.607 118.572C151.607 118.508 151.621 118.439 151.651 118.381L155.581 109.955C155.689 109.724 155.959 109.631 156.19 109.734C156.421 109.842 156.514 110.112 156.411 110.343L152.569 118.577H151.607V118.572Z" fill="#79C2BD"/>
<path d="M96.1264 118.572L74.1963 118.577C74.2306 117.855 74.6134 115.883 77.5283 114.479C81.1498 112.727 84.1235 115.353 84.1235 115.353C84.1235 114.685 84.4277 113.719 85.1884 112.894C85.0755 112.497 84.9087 112.085 84.6682 111.692C82.936 112.884 81.1252 111.241 81.0074 111.064C82.0772 109.965 83.5739 110.127 84.6388 111.03C84.575 110.181 84.7271 108.38 86.6458 107.933C87.1021 109.616 86.6114 110.765 85.1687 111.378C85.3797 111.731 85.5417 112.094 85.6643 112.453C86.4397 111.834 87.5487 111.373 89.0798 111.329C93.4128 111.191 94.6592 115.412 96.1166 118.582L96.1264 118.572Z" fill="#FEA02F"/>
<path d="M383.662 191.296H385.453V138.358H387.165V191.296H388.957V207.647H390.826V210.214H381.875V207.647H383.667V191.296H383.662Z" fill="#133A53"/>
<path d="M391.307 127.891L389.325 140.271H382.911L380.928 127.891H378.951V124.466H384.319L385.276 121.973H386.959L387.916 124.466H393.123V127.891H391.307Z" fill="#133A53"/>
<path d="M383.47 129.289L386.273 127.655L388.917 129.289V137.852H383.466V129.289H383.47Z" fill="#FFFEF9"/>
<path d="M182.703 57.1787H188.563V63.0379H182.703V57.1787Z" fill="white"/>
<path d="M189.578 57.1787H195.438V63.0379H189.578V57.1787Z" fill="white"/>
<path d="M196.434 57.1787H202.293V63.0379H196.434V57.1787Z" fill="white"/>
<path d="M182.703 63.9995H188.563V69.8587H182.703V63.9995Z" fill="white"/>
<path d="M189.578 63.9995H195.438V69.8587H189.578V63.9995Z" fill="white"/>
<path d="M196.434 63.9995H202.293V69.8587H196.434V63.9995Z" fill="white"/>
<path d="M73.4209 118.611H176.805V126.934H73.4209V118.611Z" fill="white"/>
<path d="M311.325 156.651H337.25V210.218H311.325V156.651Z" fill="#133A53"/>
</svg>
