<svg width="512" height="107" viewBox="0 0 512 107" fill="none" xmlns="http://www.w3.org/2000/svg">
<path d="M169.395 58.0996C172.448 58.7501 174.9 60.2763 176.751 62.6781C178.602 65.0299 179.528 67.732 179.528 70.7843C179.528 75.1877 177.977 78.6903 174.875 81.2923C171.822 83.8442 167.544 85.1202 162.04 85.1202H137.496V32.4301H161.214C166.568 32.4301 170.746 33.656 173.749 36.1079C176.801 38.5598 178.327 41.8873 178.327 46.0905C178.327 49.1929 177.502 51.7698 175.85 53.8214C174.249 55.8729 172.097 57.299 169.395 58.0996ZM150.331 53.7463H158.737C160.839 53.7463 162.44 53.296 163.541 52.3953C164.692 51.4446 165.267 50.0685 165.267 48.2672C165.267 46.4658 164.692 45.0897 163.541 44.139C162.44 43.1883 160.839 42.7129 158.737 42.7129H150.331V53.7463ZM159.788 74.7623C161.94 74.7623 163.591 74.287 164.742 73.3362C165.943 72.3355 166.543 70.9094 166.543 69.058C166.543 67.2066 165.918 65.7555 164.667 64.7047C163.466 63.6539 161.79 63.1285 159.638 63.1285H150.331V74.7623H159.788Z" fill="#1F6FF5"/>
<path d="M206.037 85.7207C201.934 85.7207 198.231 84.845 194.928 83.0937C191.676 81.3423 189.099 78.8404 187.197 75.588C185.346 72.3355 184.42 68.5326 184.42 64.1793C184.42 59.876 185.371 56.0981 187.272 52.8456C189.174 49.5431 191.776 47.0162 195.078 45.2649C198.381 43.5135 202.084 42.6379 206.187 42.6379C210.29 42.6379 213.993 43.5135 217.295 45.2649C220.598 47.0162 223.2 49.5431 225.101 52.8456C227.003 56.0981 227.953 59.876 227.953 64.1793C227.953 68.4825 226.978 72.2854 225.026 75.588C223.125 78.8404 220.498 81.3423 217.145 83.0937C213.843 84.845 210.14 85.7207 206.037 85.7207ZM206.037 74.6122C208.489 74.6122 210.565 73.7115 212.266 71.9102C214.018 70.1088 214.893 67.5318 214.893 64.1793C214.893 60.8267 214.043 58.2498 212.342 56.4484C210.69 54.647 208.639 53.7463 206.187 53.7463C203.685 53.7463 201.608 54.647 199.957 56.4484C198.306 58.1997 197.48 60.7767 197.48 64.1793C197.48 67.5318 198.281 70.1088 199.882 71.9102C201.533 73.7115 203.585 74.6122 206.037 74.6122Z" fill="#1F6FF5"/>
<path d="M232.211 64.1042C232.211 59.8009 233.011 56.0231 234.612 52.7706C236.264 49.5181 238.49 47.0162 241.293 45.2649C244.095 43.5135 247.222 42.6379 250.675 42.6379C253.627 42.6379 256.204 43.2383 258.406 44.4392C260.657 45.6402 262.384 47.2164 263.584 49.1678V43.2383H276.419V85.1202H263.584V79.1907C262.334 81.1422 260.582 82.7184 258.33 83.9193C256.129 85.1202 253.552 85.7207 250.6 85.7207C247.197 85.7207 244.095 84.845 241.293 83.0937C238.49 81.2923 236.264 78.7654 234.612 75.5129C233.011 72.2104 232.211 68.4075 232.211 64.1042ZM263.584 64.1793C263.584 60.9768 262.684 58.4499 260.882 56.5985C259.131 54.7471 256.979 53.8214 254.428 53.8214C251.876 53.8214 249.699 54.7471 247.898 56.5985C246.146 58.3999 245.271 60.9018 245.271 64.1042C245.271 67.3067 246.146 69.8586 247.898 71.76C249.699 73.6115 251.876 74.5372 254.428 74.5372C256.979 74.5372 259.131 73.6115 260.882 71.76C262.684 69.9086 263.584 67.3817 263.584 64.1793Z" fill="#1F6FF5"/>
<path d="M298.539 50.2186C300.041 47.9169 301.917 46.1155 304.169 44.8145C306.42 43.4635 308.922 42.788 311.674 42.788V56.3733H308.147C304.944 56.3733 302.542 57.0739 300.941 58.4749C299.34 59.826 298.539 62.2278 298.539 65.6804V85.1202H285.705V43.2383H298.539V50.2186Z" fill="#1F6FF5"/>
<path d="M315.257 64.1042C315.257 59.8009 316.058 56.0231 317.659 52.7706C319.31 49.5181 321.537 47.0162 324.339 45.2649C327.141 43.5135 330.269 42.6379 333.721 42.6379C336.473 42.6379 338.975 43.2133 341.227 44.3642C343.529 45.5151 345.33 47.0662 346.631 49.0177V29.5779H359.466V85.1202H346.631V79.1156C345.43 81.1172 343.704 82.7184 341.452 83.9193C339.25 85.1202 336.674 85.7207 333.721 85.7207C330.269 85.7207 327.141 84.845 324.339 83.0937C321.537 81.2923 319.31 78.7654 317.659 75.5129C316.058 72.2104 315.257 68.4075 315.257 64.1042ZM346.631 64.1793C346.631 60.9768 345.73 58.4499 343.929 56.5985C342.178 54.7471 340.026 53.8214 337.474 53.8214C334.922 53.8214 332.746 54.7471 330.944 56.5985C329.193 58.3999 328.317 60.9018 328.317 64.1042C328.317 67.3067 329.193 69.8586 330.944 71.76C332.746 73.6115 334.922 74.5372 337.474 74.5372C340.026 74.5372 342.178 73.6115 343.929 71.76C345.73 69.9086 346.631 67.3817 346.631 64.1793Z" fill="#1F6FF5"/>
<path d="M375.206 38.885C372.954 38.885 371.103 38.2345 369.652 36.9335C368.251 35.5825 367.55 33.9312 367.55 31.9798C367.55 29.9782 368.251 28.327 369.652 27.026C371.103 25.675 372.954 24.9994 375.206 24.9994C377.408 24.9994 379.209 25.675 380.61 27.026C382.061 28.327 382.787 29.9782 382.787 31.9798C382.787 33.9312 382.061 35.5825 380.61 36.9335C379.209 38.2345 377.408 38.885 375.206 38.885ZM381.586 43.2383V85.1202H368.751V43.2383H381.586Z" fill="#1F6FF5"/>
<path d="M444.328 42.788C449.532 42.788 453.66 44.3642 456.712 47.5166C459.815 50.669 461.366 55.0473 461.366 60.6516V85.1202H448.606V62.3779C448.606 59.6758 447.881 57.5993 446.43 56.1482C445.028 54.647 443.077 53.8964 440.575 53.8964C438.073 53.8964 436.097 54.647 434.646 56.1482C433.245 57.5993 432.544 59.6758 432.544 62.3779V85.1202H419.784V62.3779C419.784 59.6758 419.059 57.5993 417.608 56.1482C416.207 54.647 414.255 53.8964 411.753 53.8964C409.251 53.8964 407.275 54.647 405.824 56.1482C404.423 57.5993 403.722 59.6758 403.722 62.3779V85.1202H390.887V43.2383H403.722V48.4923C405.023 46.741 406.724 45.3649 408.826 44.3642C410.928 43.3134 413.304 42.788 415.956 42.788C419.109 42.788 421.911 43.4635 424.363 44.8145C426.865 46.1656 428.816 48.092 430.217 50.5939C431.668 48.2922 433.645 46.4157 436.147 44.9646C438.649 43.5135 441.376 42.788 444.328 42.788Z" fill="#1F6FF5"/>
<path d="M467.79 64.1042C467.79 59.8009 468.591 56.0231 470.192 52.7706C471.843 49.5181 474.07 47.0162 476.872 45.2649C479.674 43.5135 482.802 42.6379 486.254 42.6379C489.207 42.6379 491.784 43.2383 493.985 44.4392C496.237 45.6402 497.963 47.2164 499.164 49.1678V43.2383H511.999V85.1202H499.164V79.1907C497.913 81.1422 496.162 82.7184 493.91 83.9193C491.709 85.1202 489.132 85.7207 486.179 85.7207C482.777 85.7207 479.674 84.845 476.872 83.0937C474.07 81.2923 471.843 78.7654 470.192 75.5129C468.591 72.2104 467.79 68.4075 467.79 64.1042ZM499.164 64.1793C499.164 60.9768 498.264 58.4499 496.462 56.5985C494.711 54.7471 492.559 53.8214 490.007 53.8214C487.455 53.8214 485.279 54.7471 483.477 56.5985C481.726 58.3999 480.85 60.9018 480.85 64.1042C480.85 67.3067 481.726 69.8586 483.477 71.76C485.279 73.6115 487.455 74.5372 490.007 74.5372C492.559 74.5372 494.711 73.6115 496.462 71.76C498.264 69.9086 499.164 67.3817 499.164 64.1793Z" fill="#1F6FF5"/>
<path fill-rule="evenodd" clip-rule="evenodd" d="M69.4587 6.09037C64.8115 -2.03012 53.1933 -2.03013 48.546 6.09037L1.63562 88.0598C-3.01166 96.1803 2.79744 106.331 12.092 106.331H74.7277L103.204 65.0549L69.4587 6.09037ZM40.549 42.5821H57.9195V60.1062H40.549V42.5821ZM77.4614 42.5821H60.0908V60.1062H77.4614V42.5821ZM40.549 62.2967H57.9195V79.8208H40.549V62.2967ZM77.4614 62.2967H60.0908V79.8208H77.4614V62.2967Z" fill="#1F6FF5"/>
</svg>
